<?xml version="1.0" encoding="UTF-8"?>
<svg id="Layer_2" data-name="Layer 2" xmlns="http://www.w3.org/2000/svg" xmlns:xlink="http://www.w3.org/1999/xlink" viewBox="0 0 125 125">
  <defs>
    <style>
      .cls-1 {
        fill: none;
      }

      .cls-2 {
        fill: #0d0d0d;
      }

      .cls-3 {
        fill: #202020;
      }

      .cls-4 {
        clip-path: url(#clippath);
      }
    </style>
    <clipPath id="clippath">
      <rect class="cls-1" width="125" height="125"/>
    </clipPath>
  </defs>
  <g id="Layer_1-2" data-name="Layer 1">
    <g>
      <rect class="cls-2" width="125" height="125"/>
      <g class="cls-4">
        <g>
          <g>
            <path id="path291" class="cls-3" d="M18.13,92.11c.49-2.43,4.07-2.06,4.07.41s-3.58,2.84-4.07.41H0v-.82h18.13ZM83.92,111.84c.49-2.43,4.07-2.06,4.07.41s-3.58,2.84-4.07.41h-50.21v-.82h50.21ZM107.69,92.93c-.49,2.43-4.07,2.06-4.07-.41s3.58-2.84,4.07-.41h17.31v.82h-17.31ZM107.69,99.51c-.49,2.43-4.07,2.06-4.07-.41s3.58-2.84,4.07-.41h17.31v.82h-17.31ZM110.24,52.63c.49-2.43,4.07-2.06,4.07.41s-3.58,2.84-4.07.41h-35.44c-.49,2.43-4.07,2.06-4.07-.41s3.58-2.84,4.07-.41h35.44ZM4.98,32.89c.49-2.43,4.07-2.06,4.07.41s-3.58,2.84-4.07.41H0v-.82h4.98ZM81.37,46.88c-.49,2.43-4.07,2.06-4.07-.41s3.58-2.84,4.07-.41h35.44c.49-2.43,4.07-2.06,4.07.41s-3.58,2.84-4.07.41h-35.44,0ZM106.09,4.98c2.43.49,2.06,4.07-.41,4.07s-2.84-3.58-.41-4.07V0h.82v4.98ZM79.77,90.5c2.43.49,2.06,4.07-.41,4.07s-2.84-3.58-.41-4.07v-22.29c-2.43-.49-2.06-4.07.41-4.07s2.84,3.58.41,4.07v22.29ZM99.51,9v23.89h25.49v.82h-26.32V9c-2.43-.49-2.06-4.07.41-4.07s2.84,3.58.41,4.07ZM106.09,15.58v10.73h18.91v.82h-19.74v-11.55c-2.43-.49-2.06-4.07.41-4.07s2.84,3.58.41,4.07ZM53.45,55.06v30.47h6.58v4.98c2.43.49,2.06,4.07-.41,4.07s-2.84-3.58-.41-4.07v-4.15h-6.58v-31.29c-2.43-.49-2.06-4.07.41-4.07s2.84,3.58.41,4.07ZM51.03,46.05c.49-2.43,4.07-2.06,4.07.41s-3.58,2.84-4.07.41h-4.15v19.74h-11.55c-.49,2.43-4.07,2.06-4.07-.41s3.58-2.84,4.07-.41h10.73v-19.74h4.98ZM48.48,99.51c-.49,2.43-4.07,2.06-4.07-.41s3.58-2.84,4.07-.41h23.89v-30.47c-2.43-.49-2.06-4.07.41-4.07s2.84,3.58.41,4.07v31.29h-24.71ZM41.9,73.19c-.49,2.43-4.07,2.06-4.07-.41s3.58-2.84,4.07-.41h4.98v19.74h4.15c.49-2.43,4.07-2.06,4.07.41s-3.58,2.84-4.07.41h-4.98v-19.74h-4.15ZM27.14,116.82c2.43.49,2.06,4.07-.41,4.07s-2.84-3.58-.41-4.07v-4.15h-5.76v12.34h-.82v-13.16h7.4v4.98ZM97.08,72.37c.49-2.43,4.07-2.06,4.07.41s-3.58,2.84-4.07.41h-4.15v38.65h19.74v13.16h-.82v-12.34h-19.74v-40.3h4.98ZM107.69,60.03c-.49,2.43-4.07,2.06-4.07-.41s3.58-2.84,4.07-.41h4.98v18.13c2.43.49,2.06,4.07-.41,4.07s-2.84-3.58-.41-4.07v-17.31h-4.15ZM81.37,99.51c-.49,2.43-4.07,2.06-4.07-.41s3.58-2.84,4.07-.41h4.15v-32.89h6.58v-5.76h-17.31c-.49,2.43-4.07,2.06-4.07-.41s3.58-2.84,4.07-.41h18.13v7.4h-6.58v32.89h-4.98ZM116.82,13.16c.49-2.43,4.07-2.06,4.07.41s-3.58,2.84-4.07.41h-4.98V0h.82v13.16h4.15ZM40.3,41.9v18.13h-18.13c-.49,2.43-4.07,2.06-4.07-.41s3.58-2.84,4.07-.41h17.31v-17.31c-2.43-.49-2.06-4.07.41-4.07s2.84,3.58.41,4.07ZM22.16,13.98c-.49,2.43-4.07,2.06-4.07-.41s3.58-2.84,4.07-.41h10.73V0h.82v13.98h-11.55ZM46.88,15.58v11.55h-13.16v26.32h-4.98c-.49,2.43-4.07,2.06-4.07-.41s3.58-2.84,4.07-.41h4.15v-26.32h13.16v-10.73c-2.43-.49-2.06-4.07.41-4.07s2.84,3.58.41,4.07ZM41.9,33.72c-.49,2.43-4.07,2.06-4.07-.41s3.58-2.84,4.07-.41h10.73V15.58c-2.43-.49-2.06-4.07.41-4.07s2.84,3.58.41,4.07v18.13h-11.55ZM48.48,7.4c-.49,2.43-4.07,2.06-4.07-.41s3.58-2.84,4.07-.41h11.55v18.13c2.43.49,2.06,4.07-.41,4.07s-2.84-3.58-.41-4.07V7.4h-10.73ZM90.5,118.42c.49-2.43,4.07-2.06,4.07.41s-3.58,2.84-4.07.41h-50.21v5.76h-.82v-6.58h51.03ZM99.51,61.64v4.15h6.58v13.98h-6.58v25.49h19.74v19.74h-.82v-18.91h-19.74v-27.14h6.58v-12.34h-6.58v-4.98c-2.43-.49-2.06-4.07.41-4.07s2.84,3.58.41,4.07ZM22.16,7.4c-.49,2.43-4.07,2.06-4.07-.41s3.58-2.84,4.07-.41h4.15V.82h-6.58v-.82h7.4v7.4h-4.98ZM68.22,20.56c-.49,2.43-4.07,2.06-4.07-.41s3.58-2.84,4.07-.41h10.73V0h20.56v.82h-19.74v19.74h-11.55ZM48.48.82c-.25,1.11-1.32,1.85-2.43,1.6-1.11-.25-1.85-1.32-1.6-2.43h28.74v13.98h-7.4v-4.98c-2.43-.49-2.06-4.07.41-4.07s2.84,3.58.41,4.07v4.15h5.76V.82h-23.89ZM48.48,40.3c-.49,2.43-4.07,2.06-4.07-.41s3.58-2.84,4.07-.41h7.85l13.16-13.16h16.04V9c-2.43-.49-2.06-4.07.41-4.07s2.84,3.58.41,4.07v18.13h-16.53l-13.16,13.16h-8.18ZM60.03,77.34c2.43.49,2.06,4.07-.41,4.07s-2.84-3.58-.41-4.07v-31.46l12.99-12.99h19.9V9c-2.43-.49-2.06-4.07.41-4.07s2.84,3.58.41,4.07v24.71h-20.39l-12.5,12.5v31.13h0ZM66.61,90.5c2.43.49,2.06,4.07-.41,4.07s-2.84-3.58-.41-4.07v-40.91l10.12-10.12h47.49c.16-.82.78-1.44,1.6-1.6v4.03c-.82-.16-1.44-.78-1.6-1.6h-47.16l-9.62,9.62v40.58h0ZM7.4,64.19c2.43.49,2.06,4.07-.41,4.07s-2.84-3.58-.41-4.07v-1.44l19.74-19.74v-23.27h13.16V0h.82v20.56h-13.16v22.78L7.4,63.08v1.11h0ZM20.56,22.16v17.89L.82,59.79v25.74h10.73c.49-2.43,4.07-2.06,4.07.41s-3.58,2.84-4.07.41H0v-26.89l19.74-19.74v-17.56c-2.43-.49-2.06-4.07.41-4.07s2.84,3.58.41,4.07ZM13.98,28.74v8.02L0,50.74v-1.15l13.16-13.16v-7.69c-2.43-.49-2.06-4.07.41-4.07s2.84,3.58.41,4.07ZM4.98,13.16c.49-2.43,4.07-2.06,4.07.41s-3.58,2.84-4.07.41h-1.11L0,17.85v-1.15l3.54-3.54h1.44ZM114.27,20.56c-.49,2.43-4.07,2.06-4.07-.41s3.58-2.84,4.07-.41h7.69l3.04-3.04v1.15l-2.71,2.71h-8.02ZM107.69,86.35c-.49,2.43-4.07,2.06-4.07-.41s3.58-2.84,4.07-.41h10.73v-29.36l6.58-6.58v1.15l-5.76,5.76v29.85h-11.55ZM22.16,99.51c-.49,2.43-4.07,2.06-4.07-.41s3.58-2.84,4.07-.41h4.15v-9.29l-9.62-9.62h-7.69c-.49,2.43-4.07,2.06-4.07-.41s3.58-2.84,4.07-.41h8.02l10.12,10.12v10.44h-4.98ZM40.3,93.67v11.6h43.63c.49-2.43,4.07-2.06,4.07.41s-3.58,2.84-4.07.41h-44.45v-12.38M29.32,72.66l-6.04-6.04h-7.69c-.49,2.43-4.07,2.06-4.07-.41s3.58-2.84,4.07-.41h8.02l6.29,6.29M33.72,103.21v2.88h-11.55c-.49,2.43-4.07,2.06-4.07-.41s3.58-2.84,4.07-.41h10.73v-2.06h.82ZM28.95,82.15l-8.96-8.96h-10.98c-.49,2.43-4.07,2.06-4.07-.41s3.58-2.84,4.07-.41h11.31l9.21,9.21-.58.58h0ZM13.98,16.37v.66L3.87,27.14H0v-.82h3.54l9.62-9.62V0h.82v16.37ZM.82,123.4c.82.16,1.44.78,1.6,1.6H0v-19.74h7.4v19.74h-.82v-18.91H.82v17.31ZM13.98,99.1v25.9h-.82v-25.49H0v-.82h13.98v.41ZM6.99,7.4H0v-.82h6.58V0h.82v7.4h-.41ZM119.24,6.58h5.76v.82h-6.58V0h.82v6.58ZM106.09,118.83v6.17h-.82v-5.76h-5.76v5.76h-.82v-6.58h7.4v.41ZM0,37.87c1.27-.25,2.47.7,2.47,2.01s-1.19,2.26-2.47,2.01v-4.03ZM32.89,111.84h.82v13.16h-.82v-13.16ZM2.43,0c.29,1.44-.99,2.71-2.43,2.43V0c.99.37.37.99,0,0h2.43ZM123.4,0h1.6c-.25.66-.66-.25,0,0v2.43c-1.11-.25-1.85-1.32-1.6-2.43ZM125,123.4v1.6c-.37.12.12-.37,0,0h-1.6c.16-.82.78-1.44,1.6-1.6ZM73.19,125.82h-24.71c-.49,2.43-4.07,2.06-4.07-.41s3.58-2.84,4.07-.41h24.71v.82ZM19.74,125h7.4v.82h-7.4v-.82ZM78.95,125h20.56v.82h-20.56v-.82ZM127.55,58.1l-1.69,1.73v26.56h-.82v-26.89l1.69-1.73.82.33h0ZM125.04,125v-19.74h.82v19.74h-.82Z"/>
            <path class="cls-3" d="M46.48,128.08c-.09,0-.19,0-.28-.01-1.16-.12-2.41-1-2.41-2.65s1.25-2.54,2.41-2.65c1.03-.1,2.25.37,2.74,1.63h24.87v2.06h-24.87c-.44,1.14-1.5,1.64-2.46,1.64ZM46.49,123.98c-.06,0-.11,0-.16,0-.6.06-1.3.47-1.3,1.43s.7,1.37,1.3,1.43c.59.06,1.36-.2,1.55-1.14l.06-.29-.06-.29c-.17-.85-.82-1.15-1.39-1.15ZM100.12,126.44h-21.79v-2.06h19.74v-6.58h8.63v7.81h-2.06v-5.76h-4.52v6.58ZM27.75,126.44h-8.63v-15.21h8.63v5.13c1.25.49,1.73,1.71,1.63,2.74-.12,1.16-1,2.41-2.65,2.41s-2.54-1.25-2.65-2.41c-.1-1.03.37-2.25,1.63-2.74v-3.08h-4.52v11.1h6.58v2.06ZM26.73,117.36l-.29.06c-.94.19-1.2.95-1.14,1.55.06.6.47,1.3,1.43,1.3s1.37-.7,1.43-1.3c.06-.6-.2-1.36-1.14-1.55l-.29-.06ZM124.9,125.64c-.06,0-.12,0-.17-.02h-2.09l.15-.74c.18-.91.79-1.63,1.63-1.96v-18.28h2.06v20.97h-1.4c-.06.01-.12.02-.18.02ZM119.86,125.62h-2.06v-18.91h-19.74v-28.37h6.58v-11.1h-6.58v-5.13c-1.25-.49-1.73-1.71-1.63-2.74.12-1.16,1-2.41,2.65-2.41s2.54,1.25,2.65,2.41c.1,1.03-.37,2.25-1.63,2.74v3.08h6.58v15.21h-6.58v24.26h19.74v20.97ZM99.1,58.18c-.96,0-1.37.7-1.43,1.3-.06.6.2,1.36,1.14,1.55l.29.06.29-.06c.94-.19,1.2-.95,1.14-1.55-.06-.6-.47-1.3-1.43-1.3ZM113.28,125.62h-2.06v-12.34h-19.74v-41.53h5.13c.49-1.25,1.71-1.73,2.74-1.63,1.16.12,2.41,1,2.41,2.65s-1.25,2.54-2.41,2.65c-1.03.11-2.25-.37-2.74-1.63h-3.08v37.42h19.74v14.39ZM97.63,72.78l.06.29c.19.94.96,1.2,1.55,1.14.6-.06,1.3-.47,1.3-1.43s-.7-1.37-1.3-1.43c-.59-.06-1.36.2-1.55,1.14l-.06.29ZM40.91,125.62h-2.06v-7.81h51.18c.49-1.25,1.71-1.73,2.74-1.63,1.16.12,2.41,1,2.41,2.65s-1.25,2.54-2.41,2.65c-1.03.11-2.25-.37-2.74-1.63h-49.13v5.76ZM91.05,118.83l.06.29c.19.94.96,1.2,1.55,1.14.6-.06,1.3-.47,1.3-1.43s-.7-1.37-1.3-1.43c-.6-.06-1.36.2-1.55,1.14l-.06.29ZM34.33,125.62h-2.06v-14.39h51.18c.49-1.25,1.71-1.73,2.74-1.63,1.16.12,2.41,1,2.41,2.65s-1.25,2.54-2.41,2.65c-1.03.11-2.25-.37-2.74-1.63h-49.13v12.34ZM84.47,112.25l.06.29c.19.94.96,1.2,1.55,1.14.6-.06,1.3-.47,1.3-1.43s-.7-1.37-1.3-1.43c-.6-.06-1.36.2-1.55,1.14l-.06.29ZM14.6,125.62h-2.06v-25.49H-.62v-2.06h15.21v27.55ZM8.02,125.62h-2.06v-18.91H1.44v16.24c.82.33,1.41,1.04,1.59,1.94l.15.74H-.62v-20.97h8.63v20.97ZM.62,124.38h.81c-.19-.19-.44-.33-.73-.38l-.08-.02v.4ZM85.93,108.34c-.96,0-2.02-.5-2.46-1.64h-44.61v-12.99h.82v-.04h1.23v10.98h42.55c.49-1.25,1.71-1.73,2.74-1.63,1.16.12,2.41,1,2.41,2.65s-1.25,2.54-2.41,2.65c-.09,0-.18.01-.28.01ZM84.47,105.67l.06.29c.19.94.96,1.2,1.55,1.14.6-.06,1.3-.47,1.3-1.43s-.7-1.37-1.3-1.43c-.6-.06-1.36.2-1.55,1.14l-.06.29ZM20.16,108.34c-.09,0-.19,0-.28-.01-1.16-.12-2.41-1-2.41-2.65s1.25-2.54,2.41-2.65c1.03-.1,2.25.37,2.74,1.63h9.65v-2.06h2.06v4.11h-11.71c-.44,1.14-1.5,1.64-2.46,1.64ZM20.17,104.24c-.06,0-.11,0-.16,0-.6.06-1.3.47-1.3,1.43s.7,1.37,1.3,1.43c.6.06,1.36-.2,1.55-1.14l.06-.29-.06-.29c-.17-.85-.82-1.15-1.39-1.15ZM105.69,101.76c-.09,0-.19,0-.28-.01-1.16-.12-2.41-1-2.41-2.65s1.25-2.54,2.41-2.65c1.03-.11,2.25.37,2.74,1.63h17.47v2.06h-17.47c-.44,1.14-1.5,1.64-2.46,1.64ZM105.7,97.66c-.06,0-.11,0-.16,0-.6.06-1.3.47-1.3,1.43s.7,1.37,1.3,1.43c.59.06,1.36-.2,1.55-1.14l.06-.29-.06-.29c-.17-.85-.82-1.15-1.39-1.15ZM79.37,101.76c-.09,0-.19,0-.28-.01-1.16-.12-2.41-1-2.41-2.65s1.25-2.54,2.41-2.65c1.03-.11,2.25.37,2.74,1.63h3.08v-32.89h6.58v-4.52h-16.23c-.49,1.25-1.71,1.73-2.74,1.63-1.16-.12-2.41-1-2.41-2.65s1.25-2.54,2.41-2.65c1.03-.11,2.25.37,2.74,1.63h18.29v8.63h-6.58v32.89h-5.13c-.44,1.14-1.5,1.64-2.46,1.64ZM79.38,97.66c-.06,0-.11,0-.16,0-.6.06-1.3.47-1.3,1.43s.7,1.37,1.3,1.43c.59.06,1.36-.2,1.55-1.14l.06-.29-.06-.29c-.17-.85-.82-1.15-1.39-1.15ZM72.8,58.19c-.06,0-.11,0-.16,0-.6.06-1.3.47-1.3,1.43s.7,1.37,1.3,1.43c.59.06,1.36-.2,1.55-1.14l.06-.29-.06-.29c-.17-.85-.82-1.15-1.39-1.15ZM46.48,101.76c-.09,0-.19,0-.28-.01-1.16-.12-2.41-1-2.41-2.65s1.25-2.54,2.41-2.65c1.03-.1,2.25.37,2.74,1.63h22.81v-29.39c-1.25-.49-1.73-1.71-1.63-2.74.12-1.16,1-2.41,2.65-2.41s2.54,1.25,2.65,2.41c.1,1.03-.37,2.25-1.63,2.74v31.45h-24.87c-.44,1.14-1.5,1.64-2.46,1.64ZM46.49,97.66c-.06,0-.11,0-.16,0-.6.06-1.3.47-1.3,1.43s.7,1.37,1.3,1.43c.59.06,1.36-.2,1.55-1.14l.06-.29-.06-.29c-.17-.85-.82-1.15-1.39-1.15ZM72.78,64.76c-.96,0-1.37.7-1.43,1.3-.06.6.2,1.36,1.14,1.55l.29.06.29-.06c.94-.19,1.2-.95,1.14-1.55-.06-.6-.47-1.3-1.43-1.3ZM20.16,101.76c-.09,0-.19,0-.28-.01-1.16-.12-2.41-1-2.41-2.65s1.25-2.54,2.41-2.65c1.03-.1,2.25.37,2.74,1.63h3.08v-8.42l-9.26-9.26h-6.97c-.49,1.25-1.71,1.73-2.74,1.63-1.16-.12-2.41-1-2.41-2.65s1.25-2.54,2.41-2.65c1.03-.1,2.25.37,2.74,1.63h7.81l10.48,10.48v11.32h-5.13c-.44,1.14-1.5,1.64-2.46,1.64ZM20.17,97.66c-.06,0-.11,0-.16,0-.6.06-1.3.47-1.3,1.43s.7,1.37,1.3,1.43c.6.06,1.36-.2,1.55-1.14l.06-.29-.06-.29c-.17-.85-.82-1.15-1.39-1.15ZM7.01,77.92c-.06,0-.11,0-.16,0-.6.06-1.3.47-1.3,1.43s.7,1.37,1.3,1.43c.6.06,1.36-.2,1.55-1.14l.06-.29-.06-.29c-.17-.85-.82-1.15-1.39-1.15ZM79.36,95.19c-1.66,0-2.54-1.25-2.65-2.41-.1-1.03.37-2.25,1.63-2.74v-21.36c-1.25-.49-1.73-1.71-1.63-2.74.12-1.16,1-2.41,2.65-2.41s2.54,1.25,2.65,2.41c.1,1.03-.37,2.25-1.63,2.74v21.36c1.25.49,1.73,1.71,1.63,2.74-.12,1.16-1,2.41-2.65,2.41ZM79.36,91.05l-.29.06c-.94.19-1.2.95-1.14,1.55.06.6.47,1.3,1.43,1.3s1.37-.7,1.43-1.3c.06-.6-.2-1.36-1.14-1.55l-.29-.06ZM79.36,64.76c-.96,0-1.37.7-1.43,1.3-.06.6.2,1.36,1.14,1.55l.29.06.29-.06c.94-.19,1.2-.95,1.14-1.55-.06-.6-.47-1.3-1.43-1.3ZM66.2,95.19c-1.66,0-2.54-1.25-2.65-2.41-.1-1.03.37-2.25,1.63-2.74v-40.71l10.48-10.48h47.29c.33-.82,1.04-1.41,1.94-1.59l.74-.15v5.53l-.74-.15c-.9-.18-1.61-.77-1.94-1.59h-46.45l-9.26,9.26v39.87c1.25.49,1.73,1.71,1.63,2.74-.12,1.16-1,2.41-2.65,2.41ZM66.2,91.05l-.29.06c-.94.19-1.2.95-1.14,1.55.06.6.47,1.3,1.43,1.3s1.37-.7,1.43-1.3c.06-.6-.2-1.36-1.14-1.55l-.29-.06ZM123.94,39.88l.06.29c.06.29.19.53.38.73v-2.04c-.19.19-.33.44-.38.73l-.06.29ZM59.62,95.19c-1.66,0-2.54-1.25-2.65-2.41-.1-1.03.37-2.25,1.63-2.74v-3.08h-6.58v-31.45c-1.25-.49-1.73-1.71-1.63-2.74.12-1.16,1-2.41,2.65-2.41s2.54,1.25,2.65,2.41c.1,1.03-.37,2.25-1.63,2.74v29.39h6.58v5.13c1.25.49,1.73,1.71,1.63,2.74-.12,1.16-1,2.41-2.65,2.41ZM59.62,91.05l-.29.06c-.94.19-1.2.95-1.14,1.55.06.6.47,1.3,1.43,1.3s1.37-.7,1.43-1.3c.06-.6-.2-1.36-1.14-1.55l-.29-.06ZM53.04,51.6c-.96,0-1.37.7-1.43,1.3-.06.6.2,1.36,1.14,1.55l.29.06.29-.06c.94-.19,1.2-.95,1.14-1.55-.06-.6-.47-1.3-1.43-1.3ZM105.69,95.18c-.09,0-.19,0-.28-.01-1.16-.12-2.41-1-2.41-2.65s1.25-2.54,2.41-2.65c1.03-.1,2.25.37,2.74,1.63h17.47v2.06h-17.47c-.44,1.14-1.5,1.64-2.46,1.64ZM105.7,91.08c-.06,0-.11,0-.16,0-.6.06-1.3.47-1.3,1.43s.7,1.37,1.3,1.43c.59.06,1.36-.2,1.55-1.14l.06-.29-.06-.29c-.17-.85-.82-1.15-1.39-1.15ZM53.03,95.18c-.96,0-2.02-.5-2.46-1.64h-5.13v-19.74h-3.08c-.49,1.25-1.71,1.73-2.74,1.63-1.16-.12-2.41-1-2.41-2.65s1.25-2.54,2.41-2.65c1.03-.1,2.25.37,2.74,1.63h5.13v19.74h3.08c.49-1.25,1.71-1.73,2.74-1.63,1.16.12,2.41,1,2.41,2.65s-1.25,2.54-2.41,2.65c-.09,0-.18.01-.28.01ZM51.57,92.52l.06.29c.19.94.96,1.2,1.55,1.14.6-.06,1.3-.47,1.3-1.43s-.7-1.37-1.3-1.43c-.59-.06-1.36.2-1.55,1.14l-.06.29ZM39.91,71.34c-.06,0-.11,0-.16,0-.6.06-1.3.47-1.3,1.43s.7,1.37,1.3,1.43c.6.06,1.36-.2,1.55-1.14l.06-.29-.06-.29c-.17-.85-.82-1.15-1.39-1.15ZM20.14,95.18c-.96,0-2.02-.5-2.46-1.64H-.62v-2.06h18.29c.49-1.25,1.71-1.73,2.74-1.63,1.16.12,2.41,1,2.41,2.65s-1.25,2.54-2.41,2.65c-.09,0-.18.01-.28.01ZM18.68,92.52l.06.29c.19.94.96,1.2,1.55,1.14.6-.06,1.3-.47,1.3-1.43s-.7-1.37-1.3-1.43c-.6-.06-1.36.2-1.55,1.14l-.06.29ZM105.69,88.61c-.09,0-.19,0-.28-.01-1.16-.12-2.41-1-2.41-2.65s1.25-2.54,2.41-2.65c1.03-.1,2.25.37,2.74,1.63h9.65v-29l7.81-7.81v2.9l-5.76,5.76v30.21h-11.71c-.44,1.14-1.5,1.64-2.46,1.64ZM105.7,84.5c-.06,0-.11,0-.16,0-.6.06-1.3.47-1.3,1.43s.7,1.37,1.3,1.43c.59.06,1.36-.2,1.55-1.14l.06-.29-.06-.29c-.17-.85-.82-1.15-1.39-1.15ZM13.56,88.61c-.96,0-2.02-.5-2.46-1.64H-.62v-27.76l19.74-19.74v-16.84c-1.25-.49-1.73-1.71-1.63-2.74.12-1.16,1-2.41,2.65-2.41s2.54,1.25,2.65,2.41c.1,1.03-.37,2.25-1.63,2.74v17.68L1.44,60.04v24.87h9.65c.49-1.25,1.71-1.73,2.74-1.63,1.16.12,2.41,1,2.41,2.65s-1.25,2.54-2.41,2.65c-.09,0-.18.01-.28.01ZM12.1,85.94l.06.29c.19.94.95,1.2,1.55,1.14.6-.06,1.3-.47,1.3-1.43s-.7-1.37-1.3-1.43c-.6-.06-1.36.2-1.55,1.14l-.06.29ZM20.15,18.71c-.96,0-1.37.7-1.43,1.3-.06.6.2,1.36,1.14,1.55l.29.06.29-.06c.94-.19,1.2-.95,1.14-1.55-.06-.6-.47-1.3-1.43-1.3ZM126.48,87.01h-2.06v-27.76l2.15-2.2,2.06.82-2.16,2.21v26.93ZM28.95,83.03l-9.22-9.22h-10.26c-.49,1.25-1.71,1.73-2.74,1.63-1.16-.12-2.41-1-2.41-2.65s1.25-2.54,2.41-2.65c1.03-.1,2.25.37,2.74,1.63h11.1l9.83,9.83-1.45,1.45ZM7.01,71.34c-.06,0-.11,0-.16,0-.6.06-1.3.47-1.3,1.43s.7,1.37,1.3,1.43c.6.06,1.36-.2,1.55-1.14l.06-.29-.06-.29c-.17-.85-.82-1.15-1.39-1.15ZM112.25,82.03c-1.66,0-2.54-1.25-2.65-2.41-.1-1.03.37-2.25,1.63-2.74v-16.23h-3.08c-.49,1.25-1.71,1.73-2.74,1.63-1.16-.12-2.41-1-2.41-2.65s1.25-2.54,2.41-2.65c1.03-.11,2.25.37,2.74,1.63h5.13v18.29c1.25.49,1.73,1.71,1.63,2.74-.12,1.16-1,2.41-2.65,2.41ZM112.25,77.89l-.29.06c-.94.19-1.2.95-1.14,1.55.06.6.47,1.3,1.43,1.3s1.37-.7,1.43-1.3c.06-.6-.2-1.36-1.14-1.55l-.29-.06ZM105.7,58.19c-.06,0-.11,0-.16,0-.6.06-1.3.47-1.3,1.43s.7,1.37,1.3,1.43c.59.06,1.36-.2,1.55-1.14l.06-.29-.06-.29c-.17-.85-.82-1.15-1.39-1.15ZM59.62,82.03c-1.66,0-2.54-1.25-2.65-2.41-.1-1.03.37-2.25,1.63-2.74v-31.25l13.35-13.35h19.54V9.47c-1.25-.49-1.73-1.71-1.63-2.74.12-1.16,1-2.41,2.65-2.41s2.54,1.25,2.65,2.41c.1,1.03-.37,2.25-1.63,2.74v24.87h-20.76l-12.14,12.14v30.41c1.25.49,1.73,1.71,1.63,2.74-.12,1.16-1,2.41-2.65,2.41ZM59.62,77.89l-.29.06c-.94.19-1.2.95-1.14,1.55.06.6.47,1.3,1.43,1.3s1.37-.7,1.43-1.3c.06-.6-.2-1.36-1.14-1.55l-.29-.06ZM92.52,5.55c-.96,0-1.37.7-1.43,1.3-.06.6.2,1.36,1.14,1.55l.29.06.29-.06c.94-.19,1.2-.95,1.14-1.55-.06-.6-.47-1.3-1.43-1.3ZM28.88,73.09l-5.86-5.86h-6.97c-.49,1.25-1.71,1.73-2.74,1.63-1.16-.12-2.41-1-2.41-2.65s1.25-2.54,2.41-2.65c1.03-.1,2.25.37,2.74,1.63h7.81l6.47,6.47-1.45,1.45ZM13.59,64.77c-.06,0-.11,0-.16,0-.6.06-1.3.47-1.3,1.43s.7,1.37,1.3,1.43c.59.06,1.36-.2,1.55-1.14l.06-.29-.06-.29c-.17-.85-.82-1.15-1.39-1.15ZM6.99,68.87c-1.66,0-2.54-1.25-2.65-2.41-.1-1.03.37-2.25,1.63-2.74v-1.23l19.74-19.74v-23.63h13.16V-.62h2.06v21.79h-13.16v22.42l-19.74,19.74v.39c1.25.49,1.73,1.71,1.63,2.74-.12,1.16-1,2.41-2.65,2.41ZM6.99,64.73l-.29.06c-.94.19-1.2.95-1.14,1.55.06.6.47,1.3,1.43,1.3s1.37-.7,1.43-1.3c.06-.6-.2-1.36-1.14-1.55l-.29-.06ZM33.32,68.87c-.09,0-.19,0-.28-.01-1.16-.12-2.41-1-2.41-2.65s1.25-2.54,2.41-2.65c1.03-.1,2.25.37,2.74,1.63h9.65v-19.74h5.13c.49-1.25,1.71-1.73,2.74-1.63,1.16.12,2.41,1,2.41,2.65s-1.25,2.54-2.41,2.65c-1.03.11-2.25-.37-2.74-1.63h-3.08v19.74h-11.71c-.44,1.14-1.5,1.64-2.46,1.64ZM33.33,64.77c-.06,0-.11,0-.16,0-.6.06-1.3.47-1.3,1.43s.7,1.37,1.3,1.43c.6.06,1.36-.2,1.55-1.14l.06-.29-.06-.29c-.17-.85-.82-1.15-1.39-1.15ZM51.57,46.46l.06.29c.19.94.96,1.2,1.55,1.14.6-.06,1.3-.47,1.3-1.43s-.7-1.37-1.3-1.43c-.59-.06-1.36.2-1.55,1.14l-.06.29ZM20.16,62.29c-.09,0-.19,0-.28-.01-1.16-.12-2.41-1-2.41-2.65s1.25-2.54,2.41-2.65c1.03-.1,2.25.37,2.74,1.63h16.23v-16.23c-1.25-.49-1.73-1.71-1.63-2.74.12-1.16,1-2.41,2.65-2.41s2.54,1.25,2.65,2.41c.1,1.03-.37,2.25-1.63,2.74v18.29h-18.29c-.44,1.14-1.5,1.64-2.46,1.64ZM20.17,58.19c-.06,0-.11,0-.16,0-.6.06-1.3.47-1.3,1.43s.7,1.37,1.3,1.43c.6.06,1.36-.2,1.55-1.14l.06-.29-.06-.29c-.17-.85-.82-1.15-1.39-1.15ZM39.88,38.45c-.96,0-1.37.7-1.43,1.3-.06.6.2,1.36,1.14,1.55l.29.06.29-.06c.94-.19,1.2-.95,1.14-1.55-.06-.6-.47-1.3-1.43-1.3ZM112.24,55.71c-.96,0-2.02-.5-2.46-1.64h-34.52c-.49,1.25-1.71,1.73-2.74,1.63-1.16-.12-2.41-1-2.41-2.65s1.25-2.54,2.41-2.65c1.03-.1,2.25.37,2.74,1.63h34.52c.49-1.25,1.71-1.73,2.74-1.63,1.16.12,2.41,1,2.41,2.65s-1.25,2.54-2.41,2.65c-.09,0-.18.01-.28.01ZM110.78,53.04l.06.29c.19.94.96,1.2,1.55,1.14.6-.06,1.3-.47,1.3-1.43s-.7-1.37-1.3-1.43c-.59-.06-1.36.2-1.55,1.14l-.06.29ZM72.8,51.61c-.06,0-.11,0-.16,0-.6.06-1.3.47-1.3,1.43s.7,1.37,1.3,1.43c.59.06,1.36-.2,1.55-1.14l.06-.29-.06-.29c-.17-.85-.82-1.15-1.39-1.15ZM26.74,55.71c-.09,0-.19,0-.28-.01-1.16-.12-2.41-1-2.41-2.65s1.25-2.54,2.41-2.65c1.03-.1,2.25.37,2.74,1.63h3.08v-26.32h13.16v-9.65c-1.25-.49-1.73-1.71-1.63-2.74.12-1.16,1-2.41,2.65-2.41s2.54,1.25,2.65,2.41c.1,1.03-.37,2.25-1.63,2.74v11.71h-13.16v26.32h-5.13c-.44,1.14-1.5,1.64-2.46,1.64ZM26.75,51.61c-.06,0-.11,0-.16,0-.6.06-1.3.47-1.3,1.43s.7,1.37,1.3,1.43c.59.06,1.36-.2,1.55-1.14l.06-.29-.06-.29c-.17-.85-.82-1.15-1.39-1.15ZM46.46,12.13c-.96,0-1.37.7-1.43,1.3-.06.6.2,1.36,1.14,1.55l.29.06.29-.06c.94-.19,1.2-.95,1.14-1.55-.06-.6-.47-1.3-1.43-1.3ZM-.62,52.23v-2.9l13.16-13.16v-6.97c-1.25-.49-1.73-1.71-1.63-2.74.12-1.16,1-2.41,2.65-2.41s2.54,1.25,2.65,2.41c.1,1.03-.37,2.25-1.63,2.74v7.81L-.62,52.23ZM13.57,25.29c-.96,0-1.37.7-1.43,1.3-.06.6.2,1.36,1.14,1.55l.29.06.29-.06c.94-.19,1.2-.95,1.14-1.55-.06-.6-.47-1.3-1.43-1.3ZM118.82,49.13c-.96,0-2.02-.5-2.46-1.64h-34.52c-.49,1.25-1.71,1.73-2.74,1.63-1.16-.12-2.41-1-2.41-2.65s1.25-2.54,2.41-2.65c1.03-.1,2.25.37,2.74,1.63h34.52c.49-1.25,1.71-1.73,2.74-1.63,1.16.12,2.41,1,2.41,2.65s-1.25,2.54-2.41,2.65c-.09,0-.18.01-.28.01ZM117.36,46.46l.06.29c.19.94.96,1.2,1.55,1.14.6-.06,1.3-.47,1.3-1.43s-.7-1.37-1.3-1.43c-.59-.06-1.36.2-1.55,1.14l-.06.29ZM79.38,45.03c-.06,0-.11,0-.16,0-.6.06-1.3.47-1.3,1.43s.7,1.37,1.3,1.43c.59.06,1.36-.2,1.55-1.14l.06-.29-.06-.29c-.17-.85-.82-1.15-1.39-1.15ZM.41,42.56c-.17,0-.35-.02-.52-.05l-.5-.1v-5.05l.5-.1c.8-.15,1.61.05,2.24.56.61.51.96,1.26.96,2.06s-.35,1.55-.96,2.06c-.49.4-1.09.61-1.71.61ZM.62,38.46v2.84c.26-.04.51-.15.72-.32.33-.27.52-.67.52-1.11s-.18-.83-.52-1.11c-.21-.17-.46-.28-.72-.32ZM46.48,42.55c-.09,0-.19,0-.28-.01-1.16-.12-2.41-1-2.41-2.65s1.25-2.54,2.41-2.65c1.03-.1,2.25.37,2.74,1.63h7.14l13.16-13.16h15.67V9.47c-1.25-.49-1.73-1.71-1.63-2.74.12-1.16,1-2.41,2.65-2.41s2.54,1.25,2.65,2.41c.1,1.03-.37,2.25-1.63,2.74v18.29h-16.89l-13.16,13.16h-7.98c-.44,1.14-1.5,1.64-2.46,1.64ZM46.49,38.45c-.06,0-.11,0-.16,0-.6.06-1.3.47-1.3,1.43s.7,1.37,1.3,1.43c.59.06,1.36-.2,1.55-1.14l.06-.29-.06-.29c-.17-.85-.82-1.15-1.39-1.15ZM85.94,5.55c-.96,0-1.37.7-1.43,1.3-.06.6.2,1.36,1.14,1.55l.29.06.29-.06c.94-.19,1.2-.95,1.14-1.55-.06-.6-.47-1.3-1.43-1.3ZM39.9,35.97c-.09,0-.19,0-.28-.01-1.16-.12-2.41-1-2.41-2.65s1.25-2.54,2.41-2.65c1.03-.1,2.25.37,2.74,1.63h9.65v-16.23c-1.25-.49-1.73-1.71-1.63-2.74.12-1.16,1-2.41,2.65-2.41s2.54,1.25,2.65,2.41c.1,1.03-.37,2.25-1.63,2.74v18.29h-11.71c-.44,1.14-1.5,1.64-2.46,1.64ZM39.91,31.87c-.06,0-.11,0-.16,0-.6.06-1.3.47-1.3,1.43s.7,1.37,1.3,1.43c.6.06,1.36-.2,1.55-1.14l.06-.29-.06-.29c-.17-.85-.82-1.15-1.39-1.15ZM53.04,12.13c-.96,0-1.37.7-1.43,1.3-.06.6.2,1.36,1.14,1.55l.29.06.29-.06c.94-.19,1.2-.95,1.14-1.55-.06-.6-.47-1.3-1.43-1.3ZM6.98,35.97c-.96,0-2.02-.5-2.46-1.64H-.62v-2.06h5.13c.49-1.25,1.71-1.73,2.74-1.63,1.16.12,2.41,1,2.41,2.65s-1.25,2.54-2.41,2.65c-.09,0-.18.01-.28.01ZM5.52,33.31l.06.29c.19.94.96,1.2,1.55,1.14.6-.06,1.3-.47,1.3-1.43s-.7-1.37-1.3-1.43c-.59-.06-1.36.2-1.55,1.14l-.06.29ZM125.62,34.33h-27.55V9.47c-1.25-.49-1.73-1.71-1.63-2.74.12-1.16,1-2.41,2.65-2.41s2.54,1.25,2.65,2.41c.1,1.03-.37,2.25-1.63,2.74v22.81h25.49v2.06ZM99.1,5.55c-.96,0-1.37.7-1.43,1.3-.06.6.2,1.36,1.14,1.55l.29.06.29-.06c.94-.19,1.2-.95,1.14-1.55-.06-.6-.47-1.3-1.43-1.3ZM59.62,29.4c-1.66,0-2.54-1.25-2.65-2.41-.1-1.03.37-2.25,1.63-2.74V8.02h-9.65c-.49,1.25-1.71,1.73-2.74,1.63-1.16-.12-2.41-1-2.41-2.65s1.25-2.54,2.41-2.65c1.03-.1,2.25.37,2.74,1.63h11.71v18.29c1.25.49,1.73,1.71,1.63,2.74-.12,1.16-1,2.41-2.65,2.41ZM59.62,25.26l-.29.06c-.94.19-1.2.95-1.14,1.55.06.6.47,1.3,1.43,1.3s1.37-.7,1.43-1.3c.06-.6-.2-1.36-1.14-1.55l-.29-.06ZM46.49,5.55c-.06,0-.11,0-.16,0-.6.06-1.3.47-1.3,1.43s.7,1.37,1.3,1.43c.59.06,1.36-.2,1.55-1.14l.06-.29-.06-.29c-.17-.85-.82-1.15-1.39-1.15ZM125.62,27.75h-20.97v-11.71c-1.25-.49-1.73-1.71-1.63-2.74.12-1.16,1-2.41,2.65-2.41s2.54,1.25,2.65,2.41c.1,1.03-.37,2.25-1.63,2.74v9.65h18.91v2.06ZM105.67,12.13c-.96,0-1.37.7-1.43,1.3-.06.6.2,1.36,1.14,1.55l.29.06.29-.06c.94-.19,1.2-.95,1.14-1.55-.06-.6-.47-1.3-1.43-1.3ZM4.12,27.75H-.62v-2.06h3.9l9.26-9.26V-.62h2.06v17.9l-10.48,10.48ZM112.27,22.82c-.09,0-.19,0-.28-.01-1.16-.12-2.41-1-2.41-2.65s1.25-2.54,2.41-2.65c1.03-.11,2.25.37,2.74,1.63h6.97l3.92-3.92v2.9l-3.08,3.08h-7.81c-.44,1.14-1.5,1.64-2.46,1.64ZM112.28,18.71c-.06,0-.11,0-.16,0-.6.06-1.3.47-1.3,1.43s.7,1.37,1.3,1.43c.59.06,1.36-.2,1.55-1.14l.06-.29-.06-.29c-.17-.85-.82-1.15-1.39-1.15ZM66.21,22.82c-.09,0-.19,0-.28-.01-1.16-.12-2.41-1-2.41-2.65s1.25-2.54,2.41-2.65c1.03-.11,2.25.37,2.74,1.63h9.65V-.62h21.79V1.44h-19.74v19.74h-11.71c-.44,1.14-1.5,1.64-2.46,1.64ZM66.22,18.71c-.06,0-.11,0-.16,0-.6.06-1.3.47-1.3,1.43s.7,1.37,1.3,1.43c.59.06,1.36-.2,1.55-1.14l.06-.29-.06-.29c-.17-.85-.82-1.15-1.39-1.15ZM-.62,19.33v-2.9l3.9-3.9h1.23c.49-1.25,1.71-1.73,2.74-1.63,1.16.12,2.41,1,2.41,2.65s-1.25,2.54-2.41,2.65c-1.03.11-2.25-.37-2.74-1.63h-.39L-.62,19.33ZM5.52,13.57l.06.29c.19.94.96,1.2,1.55,1.14.6-.06,1.3-.47,1.3-1.43s-.7-1.37-1.3-1.43c-.59-.06-1.36.2-1.55,1.14l-.06.29ZM118.82,16.24c-.96,0-2.02-.5-2.46-1.64h-5.13V-.62h2.06v13.16h3.08c.49-1.25,1.71-1.73,2.74-1.63,1.16.12,2.41,1,2.41,2.65s-1.25,2.54-2.41,2.65c-.09,0-.18.01-.28.01ZM117.36,13.57l.06.29c.19.94.96,1.2,1.55,1.14.6-.06,1.3-.47,1.3-1.43s-.7-1.37-1.3-1.43c-.59-.06-1.36.2-1.55,1.14l-.06.29ZM20.16,16.24c-.09,0-.19,0-.28-.01-1.16-.12-2.41-1-2.41-2.65s1.25-2.54,2.41-2.65c1.03-.1,2.25.37,2.74,1.63h9.65V-.62h2.06v15.21h-11.71c-.44,1.14-1.5,1.64-2.46,1.64ZM20.17,12.13c-.06,0-.11,0-.16,0-.6.06-1.3.47-1.3,1.43s.7,1.37,1.3,1.43c.6.06,1.36-.2,1.55-1.14l.06-.29-.06-.29c-.17-.85-.82-1.15-1.39-1.15ZM73.81,14.6h-8.63v-5.13c-1.25-.49-1.73-1.71-1.63-2.74.12-1.16,1-2.41,2.65-2.41s2.54,1.25,2.65,2.41c.1,1.03-.37,2.25-1.63,2.74v3.08h4.52V1.44h-22.83c-.5,1.17-1.75,1.87-3.01,1.59-1.46-.32-2.39-1.74-2.07-3.16l.11-.48h29.85v15.21ZM66.2,5.55c-.96,0-1.37.7-1.43,1.3-.06.6.2,1.36,1.14,1.55l.29.06.29-.06c.94-.19,1.2-.95,1.14-1.55-.06-.6-.47-1.3-1.43-1.3ZM45.03.62c.08.57.53,1.07,1.15,1.21.75.17,1.51-.34,1.69-1.14l.02-.07h-2.86ZM105.67,9.66c-1.66,0-2.54-1.25-2.65-2.41-.1-1.03.37-2.25,1.63-2.74V-.62h2.06v5.13c1.25.49,1.73,1.71,1.63,2.74-.12,1.16-1,2.41-2.65,2.41ZM105.67,5.52l-.29.06c-.94.19-1.2.95-1.14,1.55.06.6.47,1.3,1.43,1.3s1.37-.7,1.43-1.3c.06-.6-.2-1.36-1.14-1.55l-.29-.06ZM20.16,9.66c-.09,0-.19,0-.28-.01-1.16-.12-2.41-1-2.41-2.65s1.25-2.54,2.41-2.65c1.03-.1,2.25.37,2.74,1.63h3.08V1.44h-6.58V-.62h8.63v8.63h-5.13c-.44,1.14-1.5,1.64-2.46,1.64ZM20.17,5.55c-.06,0-.11,0-.16,0-.6.06-1.3.47-1.3,1.43s.7,1.37,1.3,1.43c.6.06,1.36-.2,1.55-1.14l.06-.29-.06-.29c-.17-.85-.82-1.15-1.39-1.15ZM125.62,8.02h-7.81V-.62h2.06v6.58h5.76v2.06ZM8.02,8.02H-.62v-2.06h6.58V-.62h2.06v8.63ZM125.62,3.2l-.75-.17c-1.46-.32-2.39-1.74-2.07-3.16l.11-.48h1.63c.16-.05.35-.06.56,0h.79l-.27.73v3.08ZM123.98.62c.04.3.19.58.4.8v-.67c-.05-.04-.1-.08-.15-.13h-.26ZM.4,3.08c-.17,0-.35-.02-.53-.05l-.5-.1V.11l-.27-.73h.27v-.27L.11-.62h2.82l.1.5c.18.88-.1,1.78-.73,2.42-.51.51-1.19.79-1.89.79ZM.62,1.13v.71c.3-.04.58-.18.81-.41.23-.23.37-.51.41-.81h-.71c-.06.25-.26.45-.51.51Z"/>
          </g>
          <polygon class="cls-3" points="34.33 103.41 32.28 103.41 32.28 87.39 33.72 86.03 33.72 82.43 34.75 81.4 34.75 79.34 36.88 77.26 37.8 77.26 39.88 79.34 39.88 81.4 40.91 82.43 40.91 86.97 38.86 86.97 38.86 83.28 37.83 82.25 37.83 80.2 37.33 79.69 36.8 80.2 36.8 82.25 35.77 83.28 35.77 86.92 34.33 88.27 34.33 103.41"/>
          <g>
            <circle class="cls-3" cx="28.62" cy="81.33" r="2.14"/>
            <path class="cls-3" d="M28.62,84.09c-1.52,0-2.76-1.24-2.76-2.76s1.24-2.76,2.76-2.76,2.75,1.24,2.75,2.76-1.24,2.76-2.75,2.76ZM28.62,79.81c-.84,0-1.52.68-1.52,1.52s.68,1.52,1.52,1.52,1.52-.68,1.52-1.52-.68-1.52-1.52-1.52Z"/>
          </g>
          <g>
            <circle class="cls-3" cx="39.76" cy="87.71" r="1.36"/>
            <path class="cls-3" d="M39.76,89.68c-1.09,0-1.97-.89-1.97-1.97s.89-1.97,1.97-1.97,1.97.89,1.97,1.97-.89,1.97-1.97,1.97ZM39.76,86.97c-.41,0-.74.33-.74.74s.33.74.74.74.74-.33.74-.74-.33-.74-.74-.74Z"/>
          </g>
          <g>
            <circle class="cls-3" cx="30.14" cy="73.03" r="2.14"/>
            <path class="cls-3" d="M30.14,75.78c-1.52,0-2.75-1.24-2.75-2.76s1.24-2.75,2.75-2.75,2.76,1.24,2.76,2.75-1.24,2.76-2.76,2.76ZM30.14,71.51c-.84,0-1.52.68-1.52,1.52s.68,1.52,1.52,1.52,1.52-.68,1.52-1.52-.68-1.52-1.52-1.52Z"/>
          </g>
          <g>
            <circle class="cls-3" cx="39.88" cy="93.87" r="1.36"/>
            <path class="cls-3" d="M39.88,95.85c-1.09,0-1.97-.89-1.97-1.97s.89-1.97,1.97-1.97,1.97.89,1.97,1.97-.89,1.97-1.97,1.97ZM39.88,93.13c-.41,0-.74.33-.74.74s.33.74.74.74.74-.33.74-.74-.33-.74-.74-.74Z"/>
          </g>
          <path class="cls-3" d="M35.81,79.69c-.23,0-.41-.18-.41-.41v-2.71c0-.23.18-.41.41-.41s.41.18.41.41v2.71c0,.23-.18.41-.41.41Z"/>
        </g>
      </g>
    </g>
  </g>
</svg>